<mxfile host="app.diagrams.net" modified="2022-03-13T09:38:24.654Z" agent="5.0 (Windows NT 10.0; Win64; x64) AppleWebKit/537.36 (KHTML, like Gecko) Chrome/99.0.4844.51 Safari/537.36" etag="96kuqtaBCu81mC3kcYwT" version="17.1.2" type="github">
  <diagram id="D3HOh0rWMLDTnORlSr4f" name="Page-1">
    <mxGraphModel dx="1209" dy="674" grid="1" gridSize="10" guides="1" tooltips="1" connect="1" arrows="1" fold="1" page="1" pageScale="1" pageWidth="827" pageHeight="1169" math="0" shadow="0">
      <root>
        <mxCell id="0" />
        <mxCell id="1" parent="0" />
        <mxCell id="0XizeTaC7apPKhZ1iXg1-46" value="&lt;b&gt;&lt;font color=&quot;#000000&quot;&gt;版&lt;br&gt;本&lt;br&gt;库&lt;/font&gt;&lt;/b&gt;" style="rounded=1;whiteSpace=wrap;html=1;fontSize=18;fillColor=#FFF2CC;align=right;strokeColor=#b46504;" parent="1" vertex="1">
          <mxGeometry x="130" y="475" width="602.5" height="140" as="geometry" />
        </mxCell>
        <mxCell id="0XizeTaC7apPKhZ1iXg1-69" style="edgeStyle=elbowEdgeStyle;rounded=0;orthogonalLoop=1;jettySize=auto;elbow=vertical;html=1;exitX=0.5;exitY=0;exitDx=0;exitDy=0;fontSize=12;fontColor=#99004D;startArrow=classicThin;startFill=1;endArrow=classicThin;endFill=1;strokeColor=#67AB9F;strokeWidth=1.5;" parent="1" source="0XizeTaC7apPKhZ1iXg1-46" target="0XizeTaC7apPKhZ1iXg1-47" edge="1">
          <mxGeometry relative="1" as="geometry" />
        </mxCell>
        <mxCell id="0XizeTaC7apPKhZ1iXg1-55" style="edgeStyle=none;rounded=0;orthogonalLoop=1;jettySize=auto;html=1;exitX=0.5;exitY=1;exitDx=0;exitDy=0;entryX=0.5;entryY=0;entryDx=0;entryDy=0;fontSize=18;fontColor=#000000;" parent="1" source="0XizeTaC7apPKhZ1iXg1-50" target="0XizeTaC7apPKhZ1iXg1-43" edge="1">
          <mxGeometry relative="1" as="geometry" />
        </mxCell>
        <mxCell id="0XizeTaC7apPKhZ1iXg1-68" style="edgeStyle=none;rounded=0;orthogonalLoop=1;jettySize=auto;html=1;exitX=0.75;exitY=1;exitDx=0;exitDy=0;entryX=0.667;entryY=1.007;entryDx=0;entryDy=0;entryPerimeter=0;fontSize=12;fontColor=#FFB570;strokeWidth=1.5;startArrow=classicThin;startFill=1;endArrow=classicThin;endFill=1;strokeColor=#67AB9F;" parent="1" source="0XizeTaC7apPKhZ1iXg1-50" target="0XizeTaC7apPKhZ1iXg1-46" edge="1">
          <mxGeometry relative="1" as="geometry" />
        </mxCell>
        <mxCell id="0XizeTaC7apPKhZ1iXg1-50" value="工&lt;br&gt;作&lt;br&gt;区&lt;div&gt;&lt;/div&gt;" style="rounded=1;whiteSpace=wrap;html=1;fontSize=18;fillColor=#d0cee2;strokeColor=#56517e;align=right;" parent="1" vertex="1">
          <mxGeometry x="402.5" y="380" width="170" height="95" as="geometry" />
        </mxCell>
        <mxCell id="0XizeTaC7apPKhZ1iXg1-56" style="edgeStyle=none;rounded=0;orthogonalLoop=1;jettySize=auto;html=1;exitX=0.5;exitY=0;exitDx=0;exitDy=0;fontSize=18;fontColor=#000000;entryX=0.5;entryY=1;entryDx=0;entryDy=0;" parent="1" source="0XizeTaC7apPKhZ1iXg1-47" target="0XizeTaC7apPKhZ1iXg1-43" edge="1">
          <mxGeometry relative="1" as="geometry">
            <mxPoint x="472.5" y="570" as="targetPoint" />
          </mxGeometry>
        </mxCell>
        <mxCell id="0XizeTaC7apPKhZ1iXg1-58" style="edgeStyle=orthogonalEdgeStyle;rounded=0;orthogonalLoop=1;jettySize=auto;html=1;exitX=1;exitY=0.25;exitDx=0;exitDy=0;entryX=0.5;entryY=1;entryDx=0;entryDy=0;entryPerimeter=0;fontSize=18;fontColor=#000000;" parent="1" source="0XizeTaC7apPKhZ1iXg1-47" target="0XizeTaC7apPKhZ1iXg1-18" edge="1">
          <mxGeometry relative="1" as="geometry" />
        </mxCell>
        <mxCell id="0XizeTaC7apPKhZ1iXg1-47" value="暂&lt;br&gt;存&lt;br&gt;区" style="rounded=1;whiteSpace=wrap;html=1;fontSize=18;fillColor=#cce5ff;strokeColor=#36393d;align=right;" parent="1" vertex="1">
          <mxGeometry x="392.5" y="615" width="180" height="115" as="geometry" />
        </mxCell>
        <mxCell id="0XizeTaC7apPKhZ1iXg1-72" style="edgeStyle=orthogonalEdgeStyle;rounded=0;orthogonalLoop=1;jettySize=auto;html=1;exitX=1;exitY=0.5;exitDx=0;exitDy=0;exitPerimeter=0;entryX=0.5;entryY=0;entryDx=0;entryDy=0;fontSize=12;fontColor=#99004D;startArrow=classicThin;startFill=1;endArrow=classicThin;endFill=1;strokeColor=#67AB9F;strokeWidth=1.5;" parent="1" source="0XizeTaC7apPKhZ1iXg1-17" target="0XizeTaC7apPKhZ1iXg1-46" edge="1">
          <mxGeometry relative="1" as="geometry">
            <Array as="points">
              <mxPoint x="431.5" y="520" />
            </Array>
          </mxGeometry>
        </mxCell>
        <mxCell id="0XizeTaC7apPKhZ1iXg1-78" style="edgeStyle=orthogonalEdgeStyle;rounded=0;orthogonalLoop=1;jettySize=auto;html=1;exitX=0.5;exitY=1;exitDx=0;exitDy=0;exitPerimeter=0;entryX=0.002;entryY=0.577;entryDx=0;entryDy=0;entryPerimeter=0;fontSize=12;fontColor=#FFB570;startArrow=classicThin;startFill=1;endArrow=classicThin;endFill=1;strokeColor=#67AB9F;strokeWidth=1.5;" parent="1" source="0XizeTaC7apPKhZ1iXg1-17" target="0XizeTaC7apPKhZ1iXg1-47" edge="1">
          <mxGeometry relative="1" as="geometry" />
        </mxCell>
        <mxCell id="0XizeTaC7apPKhZ1iXg1-17" value="" style="strokeWidth=2;html=1;shape=mxgraph.flowchart.database;whiteSpace=wrap;" parent="1" vertex="1">
          <mxGeometry x="322.5" y="490" width="60" height="60" as="geometry" />
        </mxCell>
        <mxCell id="0XizeTaC7apPKhZ1iXg1-9" value="" style="shape=curlyBracket;whiteSpace=wrap;html=1;rounded=1;flipH=1;rotation=90;" parent="1" vertex="1">
          <mxGeometry x="282.5" y="475" width="20" height="180" as="geometry" />
        </mxCell>
        <mxCell id="0XizeTaC7apPKhZ1iXg1-14" value="" style="strokeWidth=2;html=1;shape=mxgraph.flowchart.database;whiteSpace=wrap;" parent="1" vertex="1">
          <mxGeometry x="202.5" y="490" width="60" height="60" as="geometry" />
        </mxCell>
        <mxCell id="0XizeTaC7apPKhZ1iXg1-15" value="" style="strokeWidth=2;html=1;shape=mxgraph.flowchart.database;whiteSpace=wrap;" parent="1" vertex="1">
          <mxGeometry x="262.5" y="490" width="60" height="60" as="geometry" />
        </mxCell>
        <mxCell id="0XizeTaC7apPKhZ1iXg1-18" value="" style="strokeWidth=2;html=1;shape=mxgraph.flowchart.database;whiteSpace=wrap;" parent="1" vertex="1">
          <mxGeometry x="592.5" y="490" width="60" height="60" as="geometry" />
        </mxCell>
        <mxCell id="0XizeTaC7apPKhZ1iXg1-27" value="untracked" style="shape=note;size=11;whiteSpace=wrap;html=1;" parent="1" vertex="1">
          <mxGeometry x="427.5" y="410" width="45" height="50" as="geometry" />
        </mxCell>
        <mxCell id="0XizeTaC7apPKhZ1iXg1-28" value="" style="shape=table;startSize=0;container=1;collapsible=0;childLayout=tableLayout;" parent="1" vertex="1">
          <mxGeometry x="422.5" y="670" width="100" height="30" as="geometry" />
        </mxCell>
        <mxCell id="0XizeTaC7apPKhZ1iXg1-29" value="" style="shape=tableRow;horizontal=0;startSize=0;swimlaneHead=0;swimlaneBody=0;top=0;left=0;bottom=0;right=0;collapsible=0;dropTarget=0;fillColor=none;points=[[0,0.5],[1,0.5]];portConstraint=eastwest;" parent="0XizeTaC7apPKhZ1iXg1-28" vertex="1">
          <mxGeometry width="100" height="30" as="geometry" />
        </mxCell>
        <mxCell id="0XizeTaC7apPKhZ1iXg1-30" value="" style="shape=partialRectangle;html=1;whiteSpace=wrap;connectable=0;overflow=hidden;fillColor=none;top=0;left=0;bottom=0;right=0;pointerEvents=1;" parent="0XizeTaC7apPKhZ1iXg1-29" vertex="1">
          <mxGeometry width="33" height="30" as="geometry">
            <mxRectangle width="33" height="30" as="alternateBounds" />
          </mxGeometry>
        </mxCell>
        <mxCell id="0XizeTaC7apPKhZ1iXg1-31" value="" style="shape=partialRectangle;html=1;whiteSpace=wrap;connectable=0;overflow=hidden;fillColor=none;top=0;left=0;bottom=0;right=0;pointerEvents=1;" parent="0XizeTaC7apPKhZ1iXg1-29" vertex="1">
          <mxGeometry x="33" width="34" height="30" as="geometry">
            <mxRectangle width="34" height="30" as="alternateBounds" />
          </mxGeometry>
        </mxCell>
        <mxCell id="0XizeTaC7apPKhZ1iXg1-32" value="" style="shape=partialRectangle;html=1;whiteSpace=wrap;connectable=0;overflow=hidden;fillColor=none;top=0;left=0;bottom=0;right=0;pointerEvents=1;" parent="0XizeTaC7apPKhZ1iXg1-29" vertex="1">
          <mxGeometry x="67" width="33" height="30" as="geometry">
            <mxRectangle width="33" height="30" as="alternateBounds" />
          </mxGeometry>
        </mxCell>
        <mxCell id="0XizeTaC7apPKhZ1iXg1-33" value="&lt;b&gt;stage&lt;/b&gt;" style="text;html=1;strokeColor=none;fillColor=none;align=center;verticalAlign=middle;whiteSpace=wrap;rounded=0;" parent="1" vertex="1">
          <mxGeometry x="442.5" y="700" width="60" height="30" as="geometry" />
        </mxCell>
        <mxCell id="0XizeTaC7apPKhZ1iXg1-34" value="&lt;b&gt;&lt;font color=&quot;#cc0066&quot;&gt;add&lt;/font&gt;/changes&lt;br&gt;加入改动文件&lt;br&gt;&lt;/b&gt;" style="text;html=1;strokeColor=none;fillColor=none;align=center;verticalAlign=middle;whiteSpace=wrap;rounded=0;" parent="1" vertex="1">
          <mxGeometry x="427.5" y="630" width="90" height="30" as="geometry" />
        </mxCell>
        <mxCell id="0XizeTaC7apPKhZ1iXg1-43" value="&lt;b&gt;&lt;font color=&quot;#99004d&quot;&gt;status&lt;/font&gt;&lt;/b&gt;" style="text;html=1;strokeColor=none;fillColor=none;align=center;verticalAlign=middle;whiteSpace=wrap;rounded=0;" parent="1" vertex="1">
          <mxGeometry x="462.5" y="530" width="60" height="30" as="geometry" />
        </mxCell>
        <mxCell id="0XizeTaC7apPKhZ1iXg1-44" value="&lt;b&gt;&lt;font color=&quot;#000000&quot;&gt;commits&lt;/font&gt;&lt;/b&gt;" style="text;html=1;strokeColor=none;fillColor=none;align=center;verticalAlign=middle;whiteSpace=wrap;rounded=0;fontColor=#99004D;" parent="1" vertex="1">
          <mxGeometry x="262.5" y="577.5" width="60" height="30" as="geometry" />
        </mxCell>
        <mxCell id="0XizeTaC7apPKhZ1iXg1-45" value="&lt;h1 style=&quot;font-size: 18px&quot;&gt;log&lt;/h1&gt;&lt;div&gt;&lt;font size=&quot;1&quot; color=&quot;#99004d&quot;&gt;&lt;b&gt;git log&lt;/b&gt;&lt;/font&gt;&lt;/div&gt;&lt;div&gt;&lt;font size=&quot;1&quot; color=&quot;#99004d&quot;&gt;&lt;b&gt;&lt;br&gt;&lt;/b&gt;&lt;/font&gt;&lt;/div&gt;&lt;div&gt;&lt;font size=&quot;1&quot; color=&quot;#99004d&quot;&gt;&lt;b&gt;git log -pretty=short&lt;/b&gt;&lt;/font&gt;&lt;/div&gt;&lt;div&gt;&lt;font size=&quot;1&quot; color=&quot;#99004d&quot;&gt;&lt;b&gt;&lt;br&gt;&lt;/b&gt;&lt;/font&gt;&lt;/div&gt;&lt;div&gt;&lt;font size=&quot;1&quot; color=&quot;#99004d&quot;&gt;&lt;b&gt;git log README.md&lt;/b&gt;&lt;/font&gt;&lt;/div&gt;&lt;div&gt;&lt;br&gt;&lt;/div&gt;&lt;div&gt;&lt;font size=&quot;1&quot;&gt;&lt;b&gt;#显示文件改动&lt;/b&gt;&lt;/font&gt;&lt;/div&gt;&lt;div&gt;&lt;b&gt;&lt;font color=&quot;#99004d&quot;&gt;git log -p&lt;/font&gt;&lt;/b&gt;&lt;/div&gt;&lt;div&gt;&lt;b&gt;&lt;font color=&quot;#99004d&quot;&gt;&lt;br&gt;&lt;/font&gt;&lt;/b&gt;&lt;/div&gt;&lt;div&gt;&lt;b&gt;&lt;font color=&quot;#99004d&quot;&gt;git log -p README.me&lt;/font&gt;&lt;/b&gt;&lt;/div&gt;" style="text;html=1;strokeColor=none;fillColor=none;spacing=5;spacingTop=-20;whiteSpace=wrap;overflow=hidden;rounded=0;fontColor=#000000;" parent="1" vertex="1">
          <mxGeometry x="182.5" y="577.5" width="140" height="190" as="geometry" />
        </mxCell>
        <mxCell id="0XizeTaC7apPKhZ1iXg1-49" value="modifier" style="shape=note;size=11;whiteSpace=wrap;html=1;" parent="1" vertex="1">
          <mxGeometry x="477.5" y="410" width="45" height="50" as="geometry" />
        </mxCell>
        <mxCell id="0XizeTaC7apPKhZ1iXg1-52" style="edgeStyle=none;rounded=0;orthogonalLoop=1;jettySize=auto;html=1;exitX=0.5;exitY=0;exitDx=0;exitDy=0;fontSize=18;fontColor=#000000;" parent="1" source="0XizeTaC7apPKhZ1iXg1-46" target="0XizeTaC7apPKhZ1iXg1-46" edge="1">
          <mxGeometry relative="1" as="geometry" />
        </mxCell>
        <mxCell id="0XizeTaC7apPKhZ1iXg1-54" style="edgeStyle=none;rounded=0;orthogonalLoop=1;jettySize=auto;html=1;exitX=0.25;exitY=1;exitDx=0;exitDy=0;entryX=0.25;entryY=0;entryDx=0;entryDy=0;fontSize=18;fontColor=#000000;" parent="1" source="0XizeTaC7apPKhZ1iXg1-50" target="0XizeTaC7apPKhZ1iXg1-34" edge="1">
          <mxGeometry relative="1" as="geometry" />
        </mxCell>
        <mxCell id="0XizeTaC7apPKhZ1iXg1-60" value="&lt;font style=&quot;font-size: 12px&quot;&gt;尚未commit&lt;/font&gt;" style="text;html=1;strokeColor=none;fillColor=none;align=center;verticalAlign=middle;whiteSpace=wrap;rounded=0;fontSize=18;fontColor=#000000;" parent="1" vertex="1">
          <mxGeometry x="452.5" y="580" width="75" height="30" as="geometry" />
        </mxCell>
        <mxCell id="0XizeTaC7apPKhZ1iXg1-62" value="&lt;font style=&quot;font-size: 12px&quot;&gt;尚未add&lt;/font&gt;" style="text;html=1;strokeColor=none;fillColor=none;align=center;verticalAlign=middle;whiteSpace=wrap;rounded=0;fontSize=18;fontColor=#000000;" parent="1" vertex="1">
          <mxGeometry x="452.5" y="480" width="60" height="30" as="geometry" />
        </mxCell>
        <mxCell id="0XizeTaC7apPKhZ1iXg1-64" value="&lt;b&gt;&lt;font color=&quot;#99004d&quot;&gt;commit&lt;/font&gt;&lt;/b&gt;" style="text;html=1;strokeColor=none;fillColor=none;align=center;verticalAlign=middle;whiteSpace=wrap;rounded=0;fontSize=12;fontColor=#000000;" parent="1" vertex="1">
          <mxGeometry x="592.5" y="640" width="60" height="30" as="geometry" />
        </mxCell>
        <mxCell id="0XizeTaC7apPKhZ1iXg1-73" value="diff" style="text;html=1;strokeColor=none;fillColor=none;align=center;verticalAlign=middle;whiteSpace=wrap;rounded=0;fontSize=12;fontColor=#99004D;fontStyle=1" parent="1" vertex="1">
          <mxGeometry x="512.5" y="530" width="60" height="30" as="geometry" />
        </mxCell>
        <mxCell id="0XizeTaC7apPKhZ1iXg1-74" value="diff HEAD" style="text;html=1;strokeColor=none;fillColor=none;align=center;verticalAlign=middle;whiteSpace=wrap;rounded=0;fontSize=12;fontColor=#99004D;fontStyle=1;rotation=-15;" parent="1" vertex="1">
          <mxGeometry x="382.5" y="530" width="60" height="30" as="geometry" />
        </mxCell>
        <mxCell id="0XizeTaC7apPKhZ1iXg1-77" value="&amp;nbsp;diff --cached" style="text;html=1;strokeColor=none;fillColor=none;align=center;verticalAlign=middle;whiteSpace=wrap;rounded=0;fontSize=12;fontColor=#99004D;fontStyle=1" parent="1" vertex="1">
          <mxGeometry x="307.5" y="680" width="90" height="30" as="geometry" />
        </mxCell>
        <mxCell id="JoEdu4cHEeeirlnH0vfL-2" style="edgeStyle=none;rounded=0;orthogonalLoop=1;jettySize=auto;html=1;exitX=0.5;exitY=1;exitDx=0;exitDy=0;entryX=0.497;entryY=0.289;entryDx=0;entryDy=0;entryPerimeter=0;" edge="1" parent="1" source="JoEdu4cHEeeirlnH0vfL-1" target="0XizeTaC7apPKhZ1iXg1-17">
          <mxGeometry relative="1" as="geometry" />
        </mxCell>
        <mxCell id="JoEdu4cHEeeirlnH0vfL-1" value="HEAD" style="text;html=1;strokeColor=none;fillColor=none;align=center;verticalAlign=middle;whiteSpace=wrap;rounded=0;" vertex="1" parent="1">
          <mxGeometry x="322.5" y="430" width="60" height="30" as="geometry" />
        </mxCell>
      </root>
    </mxGraphModel>
  </diagram>
</mxfile>
